<?xml version="1.0" encoding="iso-8859-1"?>
<!-- Generator: Adobe Illustrator 18.0.0, SVG Export Plug-In . SVG Version: 6.00 Build 0)  -->
<!DOCTYPE svg PUBLIC "-//W3C//DTD SVG 1.1//EN" "http://www.w3.org/Graphics/SVG/1.1/DTD/svg11.dtd">
<svg xmlns="http://www.w3.org/2000/svg" xmlns:xlink="http://www.w3.org/1999/xlink" version="1.1" id="Capa_1" x="0px" y="0px" viewBox="0 0 297 297" style="enable-background:new 0 0 297 297;" xml:space="preserve" width="512px" height="512px">
<g>
	<path d="M186.402,116.417c-2.832-2.831-7.089-3.677-10.789-2.146c-3.699,1.532-6.111,5.142-6.111,9.147v146.116   c0,5.467,4.433,9.9,9.9,9.9h41.137c5.467,0,9.9-4.433,9.9-9.9V164.555c0-2.626-1.043-5.143-2.899-7.001L186.402,116.417z" fill="#FFFFFF"/>
	<path d="M142.052,114.271c-3.7-1.531-7.958-0.685-10.789,2.146l-41.137,41.138c-1.856,1.857-2.899,4.375-2.899,7.001v104.977   c0,5.467,4.433,9.9,9.9,9.9h41.137c5.467,0,9.9-4.433,9.9-9.9V123.418C148.163,119.413,145.751,115.803,142.052,114.271z" fill="#FFFFFF"/>
	<path d="M21.851,116.417c-2.832-2.831-7.089-3.677-10.789-2.146c-3.699,1.532-6.111,5.142-6.111,9.147v146.116   c0,5.467,4.433,9.9,9.9,9.9h41.137c5.467,0,9.9-4.433,9.9-9.9V164.556c0-2.626-1.043-5.143-2.899-7.001L21.851,116.417z" fill="#FFFFFF"/>
	<path d="M296.889,128.89l-6.359-42.116c-0.817-5.405-5.856-9.121-11.267-8.311c-5.406,0.816-9.128,5.861-8.311,11.267l2.35,15.562   L162.548,19.636c-3.698-2.86-8.888-2.744-12.455,0.276L77.563,81.334L16.901,20.672c-3.867-3.865-10.134-3.865-14.001,0   c-3.866,3.866-3.866,10.135,0,14.001l67.106,67.105c3.642,3.642,9.468,3.882,13.399,0.554l73.368-62.132l103.588,80.114   l-16.152-0.092c-5.475-0.021-9.926,4.376-9.957,9.843c-0.031,5.468,4.376,9.925,9.843,9.957l42.948,0.245c0.019,0,0.038,0,0.057,0   c2.872,0,5.605-1.248,7.486-3.421C296.48,134.658,297.321,131.751,296.889,128.89z" fill="#FFFFFF"/>
</g>
<g>
</g>
<g>
</g>
<g>
</g>
<g>
</g>
<g>
</g>
<g>
</g>
<g>
</g>
<g>
</g>
<g>
</g>
<g>
</g>
<g>
</g>
<g>
</g>
<g>
</g>
<g>
</g>
<g>
</g>
</svg>
